<svg xmlns="http://www.w3.org/2000/svg" viewBox="0 0 100 100">
  <rect width="100" height="100" rx="20" fill="#3b82f6"/>
  <g fill="#ffffff">
    <rect x="20" y="20" width="20" height="20" rx="2"/>
    <rect x="60" y="20" width="20" height="20" rx="2"/>
    <rect x="20" y="60" width="20" height="20" rx="2"/>
    <rect x="45" y="45" width="10" height="10" rx="1"/>
    <rect x="60" y="45" width="10" height="10" rx="1"/>
    <rect x="75" y="45" width="10" height="10" rx="1"/>
    <rect x="45" y="60" width="10" height="10" rx="1"/>
    <rect x="60" y="60" width="10" height="10" rx="1"/>
    <rect x="75" y="60" width="10" height="10" rx="1"/>
    <rect x="45" y="75" width="10" height="10" rx="1"/>
    <rect x="60" y="75" width="10" height="10" rx="1"/>
    <rect x="75" y="75" width="10" height="10" rx="1"/>
  </g>
</svg>